<svg width="133" height="25" viewBox="0 0 133 25" fill="none" xmlns="http://www.w3.org/2000/svg">
<path d="M11.5489 2.92705C11.8483 2.00574 13.1517 2.00574 13.4511 2.92705L15.0819 7.9463C15.2158 8.35833 15.5997 8.63729 16.033 8.63729H21.3105C22.2792 8.63729 22.682 9.8769 21.8983 10.4463L17.6287 13.5484C17.2782 13.803 17.1315 14.2544 17.2654 14.6664L18.8963 19.6857C19.1956 20.607 18.1411 21.3731 17.3574 20.8037L13.0878 17.7016C12.7373 17.447 12.2627 17.447 11.9122 17.7016L7.64258 20.8037C6.85887 21.3731 5.80439 20.607 6.10374 19.6857L7.7346 14.6664C7.86847 14.2544 7.72181 13.803 7.37132 13.5484L3.10169 10.4463C2.31798 9.8769 2.72075 8.63729 3.68948 8.63729H8.96703C9.40026 8.63729 9.78421 8.35833 9.91809 7.9463L11.5489 2.92705Z" fill="#FEBC46"/>
<path d="M38.5489 2.92705C38.8483 2.00574 40.1517 2.00574 40.4511 2.92705L42.0819 7.9463C42.2158 8.35833 42.5997 8.63729 43.033 8.63729H48.3105C49.2792 8.63729 49.682 9.8769 48.8983 10.4463L44.6287 13.5484C44.2782 13.803 44.1315 14.2544 44.2654 14.6664L45.8963 19.6857C46.1956 20.607 45.1411 21.3731 44.3574 20.8037L40.0878 17.7016C39.7373 17.447 39.2627 17.447 38.9122 17.7016L34.6426 20.8037C33.8589 21.3731 32.8044 20.607 33.1037 19.6857L34.7346 14.6664C34.8685 14.2544 34.7218 13.803 34.3713 13.5484L30.1017 10.4463C29.318 9.8769 29.7208 8.63729 30.6895 8.63729H35.967C36.4003 8.63729 36.7842 8.35833 36.9181 7.9463L38.5489 2.92705Z" fill="#FEBC46"/>
<path d="M65.5489 2.92705C65.8483 2.00574 67.1517 2.00574 67.4511 2.92705L69.0819 7.9463C69.2158 8.35833 69.5997 8.63729 70.033 8.63729H75.3105C76.2792 8.63729 76.682 9.8769 75.8983 10.4463L71.6287 13.5484C71.2782 13.803 71.1315 14.2544 71.2654 14.6664L72.8963 19.6857C73.1956 20.607 72.1411 21.3731 71.3574 20.8037L67.0878 17.7016C66.7373 17.447 66.2627 17.447 65.9122 17.7016L61.6426 20.8037C60.8589 21.3731 59.8044 20.607 60.1037 19.6857L61.7346 14.6664C61.8685 14.2544 61.7218 13.803 61.3713 13.5484L57.1017 10.4463C56.318 9.8769 56.7208 8.63729 57.6895 8.63729H62.967C63.4003 8.63729 63.7842 8.35833 63.9181 7.9463L65.5489 2.92705Z" fill="#FEBC46"/>
<path d="M92.5489 2.92705C92.8483 2.00574 94.1517 2.00574 94.4511 2.92705L96.0819 7.9463C96.2158 8.35833 96.5997 8.63729 97.033 8.63729H102.311C103.279 8.63729 103.682 9.8769 102.898 10.4463L98.6287 13.5484C98.2782 13.803 98.1315 14.2544 98.2654 14.6664L99.8963 19.6857C100.196 20.607 99.1411 21.3731 98.3574 20.8037L94.0878 17.7016C93.7373 17.447 93.2627 17.447 92.9122 17.7016L88.6426 20.8037C87.8589 21.3731 86.8044 20.607 87.1037 19.6857L88.7346 14.6664C88.8685 14.2544 88.7218 13.803 88.3713 13.5484L84.1017 10.4463C83.318 9.8769 83.7208 8.63729 84.6895 8.63729H89.967C90.4003 8.63729 90.7842 8.35833 90.9181 7.9463L92.5489 2.92705Z" fill="#FEBC46"/>
<path d="M119.549 2.92705C119.848 2.00574 121.152 2.00574 121.451 2.92705L123.082 7.9463C123.216 8.35833 123.6 8.63729 124.033 8.63729H129.311C130.279 8.63729 130.682 9.8769 129.898 10.4463L125.629 13.5484C125.278 13.803 125.132 14.2544 125.265 14.6664L126.896 19.6857C127.196 20.607 126.141 21.3731 125.357 20.8037L121.088 17.7016C120.737 17.447 120.263 17.447 119.912 17.7016L115.643 20.8037C114.859 21.3731 113.804 20.607 114.104 19.6857L115.735 14.6664C115.868 14.2544 115.722 13.803 115.371 13.5484L111.102 10.4463C110.318 9.8769 110.721 8.63729 111.689 8.63729H116.967C117.4 8.63729 117.784 8.35833 117.918 7.9463L119.549 2.92705Z" fill="#FEBC46"/>
</svg>
